<svg width="663" height="606" viewBox="0 0 663 606" fill="none" xmlns="http://www.w3.org/2000/svg">
<circle cx="303" cy="303" r="303" fill="white"/>
<circle cx="303" cy="302" r="264" fill="url(#paint0_linear_144_600)"/>
<path d="M218.796 397.973C301.76 397.973 369.016 330.786 369.016 247.907C369.016 165.028 301.76 97.8408 218.796 97.8408C135.831 97.8408 68.5753 165.028 68.5753 247.907C68.5753 330.786 135.831 397.973 218.796 397.973Z" fill="#F2F2F2"/>
<path d="M393.015 393.533C408.725 393.533 421.46 380.811 421.46 365.118C421.46 349.425 408.725 336.703 393.015 336.703C377.306 336.703 364.571 349.425 364.571 365.118C364.571 380.811 377.306 393.533 393.015 393.533Z" fill="#00CE7C"/>
<path d="M536.125 457.466C542.507 457.466 547.68 452.298 547.68 445.923C547.68 439.548 542.507 434.379 536.125 434.379C529.743 434.379 524.569 439.548 524.569 445.923C524.569 452.298 529.743 457.466 536.125 457.466Z" fill="#F2F2F2"/>
<path d="M338.882 441.487C267.084 441.491 204.615 387.985 195.386 315.008L197.15 314.785C206.264 386.862 267.973 439.707 338.883 439.711C344.908 439.711 350.927 439.331 356.904 438.575C435.113 428.705 490.702 357.114 480.822 278.986L482.586 278.763C492.588 357.862 436.308 430.345 357.127 440.337C351.076 441.102 344.982 441.486 338.882 441.487Z" fill="#313735"/>
<path d="M342.737 471.188H314.468C313.864 471.189 313.267 471.054 312.723 470.792C312.179 470.53 311.701 470.149 311.326 469.676C310.955 469.215 310.693 468.677 310.56 468.101C310.428 467.525 310.427 466.926 310.559 466.35C313.241 454.523 313.083 442.23 310.097 430.475C309.893 429.664 309.951 428.808 310.262 428.031C310.574 427.254 311.123 426.595 311.831 426.148C321.611 420.096 332.26 420.285 344.389 426.727C344.94 427.017 345.417 427.43 345.782 427.935C346.147 428.439 346.391 429.021 346.494 429.635C348.502 442.255 348.573 455.108 346.702 467.75C346.569 468.705 346.094 469.58 345.365 470.212C344.636 470.844 343.703 471.191 342.737 471.188Z" fill="#00CE7C"/>
<path d="M213.85 320.234H185.581C184.977 320.235 184.38 320.1 183.836 319.838C183.292 319.576 182.814 319.195 182.439 318.722C182.068 318.261 181.806 317.723 181.673 317.147C181.54 316.571 181.54 315.972 181.672 315.396C184.364 303.528 184.195 291.191 181.178 279.401C180.988 278.625 181.034 277.81 181.311 277.06C181.588 276.31 182.083 275.66 182.733 275.194C197.27 264.75 208.718 265.053 216.759 276.096C217.122 276.6 217.362 277.18 217.463 277.792C219.611 290.696 219.73 303.856 217.815 316.796C217.682 317.751 217.207 318.626 216.478 319.258C215.749 319.89 214.815 320.237 213.85 320.234Z" fill="#CCCCCC"/>
<path d="M329.529 444.683H319.804C319.267 444.682 318.752 444.468 318.373 444.088C317.994 443.709 317.781 443.194 317.781 442.658C317.781 442.121 317.994 441.607 318.373 441.227C318.752 440.847 319.267 440.633 319.804 440.632H329.529C330.067 440.632 330.582 440.845 330.963 441.225C331.343 441.605 331.556 442.12 331.556 442.658C331.556 443.195 331.343 443.71 330.963 444.09C330.582 444.47 330.067 444.683 329.529 444.683Z" fill="white"/>
<path d="M341.419 452.687H319.804C319.267 452.686 318.752 452.472 318.373 452.092C317.994 451.712 317.781 451.198 317.781 450.661C317.781 450.125 317.994 449.61 318.373 449.231C318.752 448.851 319.267 448.637 319.804 448.636H341.419C341.956 448.637 342.471 448.851 342.85 449.231C343.23 449.61 343.443 450.125 343.443 450.661C343.443 451.198 343.23 451.712 342.85 452.092C342.471 452.472 341.956 452.686 341.419 452.687Z" fill="white"/>
<path d="M205.086 291.953H195.361C194.824 291.952 194.309 291.738 193.93 291.359C193.551 290.979 193.338 290.464 193.338 289.928C193.338 289.391 193.551 288.877 193.93 288.497C194.309 288.117 194.824 287.903 195.361 287.902H205.086C205.623 287.903 206.138 288.117 206.517 288.497C206.896 288.877 207.109 289.391 207.109 289.928C207.109 290.464 206.896 290.979 206.517 291.359C206.138 291.738 205.623 291.952 205.086 291.953Z" fill="white"/>
<path d="M205.086 299.057H195.361C194.824 299.056 194.309 298.842 193.93 298.462C193.551 298.082 193.338 297.568 193.338 297.031C193.338 296.495 193.551 295.98 193.93 295.601C194.309 295.221 194.824 295.007 195.361 295.006H205.086C205.623 295.007 206.138 295.221 206.517 295.601C206.896 295.98 207.109 296.495 207.109 297.031C207.109 297.568 206.896 298.082 206.517 298.462C206.138 298.842 205.623 299.056 205.086 299.057Z" fill="white"/>
<path d="M205.086 306.161H195.361C194.824 306.16 194.309 305.946 193.93 305.566C193.551 305.186 193.338 304.672 193.338 304.135C193.338 303.599 193.551 303.084 193.93 302.704C194.309 302.325 194.824 302.111 195.361 302.11H205.086C205.623 302.111 206.138 302.325 206.517 302.704C206.896 303.084 207.109 303.599 207.109 304.135C207.109 304.672 206.896 305.186 206.517 305.566C206.138 305.946 205.623 306.16 205.086 306.161Z" fill="white"/>
<path d="M594.327 353.598H503.959C501.537 353.595 499.215 352.632 497.503 350.922C495.79 349.211 494.827 346.892 494.824 344.472V288.871C494.827 286.452 495.79 284.132 497.503 282.422C499.215 280.711 501.537 279.749 503.959 279.746H594.327C596.749 279.749 599.07 280.711 600.783 282.422C602.495 284.132 603.459 286.452 603.462 288.871V344.472C603.459 346.892 602.495 349.211 600.783 350.922C599.07 352.633 596.749 353.595 594.327 353.598Z" fill="#E6E6E6"/>
<path d="M558.422 346.436H510.311C508.043 346.433 505.869 345.532 504.265 343.93C502.661 342.328 501.758 340.155 501.756 337.89V295.454C501.758 293.188 502.661 291.016 504.265 289.413C505.869 287.811 508.043 286.91 510.311 286.907H587.975C590.243 286.91 592.417 287.811 594.021 289.413C595.625 291.016 596.527 293.188 596.53 295.454V308.368C596.518 318.461 592.5 328.137 585.356 335.273C578.212 342.41 568.525 346.424 558.422 346.436Z" fill="white"/>
<path d="M580.227 310.144H518.059C517.521 310.144 517.005 309.931 516.625 309.551C516.245 309.171 516.031 308.656 516.031 308.119C516.031 307.582 516.245 307.067 516.625 306.687C517.005 306.307 517.521 306.094 518.059 306.094H580.227C580.765 306.094 581.281 306.307 581.661 306.687C582.041 307.067 582.255 307.582 582.255 308.119C582.255 308.656 582.041 309.171 581.661 309.551C581.281 309.931 580.765 310.144 580.227 310.144Z" fill="#00CE7C"/>
<path d="M527.783 318.148H518.059C517.522 318.147 517.007 317.933 516.628 317.553C516.248 317.173 516.035 316.659 516.035 316.122C516.035 315.586 516.248 315.071 516.628 314.692C517.007 314.312 517.522 314.098 518.059 314.097H527.783C528.32 314.098 528.835 314.312 529.214 314.692C529.594 315.071 529.807 315.586 529.807 316.122C529.807 316.659 529.594 317.173 529.214 317.553C528.835 317.933 528.32 318.147 527.783 318.148Z" fill="#00CE7C"/>
<path d="M545.007 326.151H518.059C517.521 326.151 517.005 325.938 516.625 325.558C516.245 325.178 516.031 324.663 516.031 324.126C516.031 323.589 516.245 323.073 516.625 322.694C517.005 322.314 517.521 322.1 518.059 322.1H545.007C545.545 322.1 546.061 322.314 546.441 322.694C546.821 323.073 547.035 323.589 547.035 324.126C547.035 324.663 546.821 325.178 546.441 325.558C546.061 325.938 545.545 326.151 545.007 326.151Z" fill="#00CE7C"/>
<path d="M491.671 297.735C502.228 297.735 510.787 289.185 510.787 278.638C510.787 268.092 502.228 259.542 491.671 259.542C481.113 259.542 472.554 268.092 472.554 278.638C472.554 289.185 481.113 297.735 491.671 297.735Z" fill="#313735"/>
<path d="M275.273 133.368C276.539 126.952 279.057 120.847 282.685 115.402C286.312 109.957 290.977 105.28 296.414 101.636C307.394 94.2782 320.851 91.5787 333.823 94.1318C340.247 95.396 346.358 97.9117 351.808 101.535C357.258 105.159 361.941 109.819 365.588 115.251C369.235 120.682 371.776 126.778 373.065 133.19C374.354 139.602 374.366 146.205 373.1 152.622L371.355 152.278C373.82 139.781 371.214 126.818 364.111 116.24C357.008 105.663 345.99 98.3369 333.48 95.8748C320.97 93.4127 307.993 96.0158 297.405 103.112C286.816 110.207 279.483 121.214 277.018 133.712L275.273 133.368Z" fill="#313735"/>
<path d="M294.204 164.788L265.959 165.957C265.356 165.983 264.754 165.873 264.2 165.634C263.645 165.395 263.152 165.033 262.757 164.576C262.368 164.132 262.084 163.604 261.927 163.034C261.771 162.464 261.745 161.866 261.853 161.285C264.021 149.478 263.389 137.328 260.009 125.808C259.748 124.927 259.801 123.983 260.159 123.137C260.517 122.291 261.157 121.594 261.971 121.167C273.541 115.163 284.381 114.858 294.189 120.261C294.703 120.54 295.15 120.928 295.499 121.397C295.848 121.866 296.09 122.406 296.209 122.978C298.762 135.548 299.374 148.435 298.023 161.19C297.93 162.149 297.492 163.043 296.79 163.704C296.087 164.366 295.169 164.751 294.204 164.788Z" fill="#00CE7C"/>
<path d="M293.009 146.321L271.412 147.214C271.146 147.226 270.88 147.184 270.63 147.093C270.38 147.002 270.15 146.862 269.954 146.682C269.758 146.501 269.599 146.284 269.487 146.043C269.375 145.802 269.312 145.54 269.301 145.275C269.29 145.009 269.331 144.743 269.423 144.493C269.515 144.243 269.655 144.014 269.835 143.818C270.016 143.623 270.233 143.464 270.475 143.352C270.717 143.241 270.978 143.178 271.245 143.167L292.841 142.273C293.107 142.262 293.373 142.304 293.623 142.395C293.873 142.487 294.102 142.627 294.298 142.807C294.494 142.987 294.653 143.204 294.765 143.445C294.877 143.686 294.94 143.947 294.951 144.213C294.962 144.479 294.921 144.744 294.829 144.994C294.737 145.244 294.597 145.473 294.417 145.669C294.237 145.865 294.02 146.023 293.778 146.135C293.536 146.247 293.275 146.31 293.009 146.321Z" fill="white"/>
<path d="M292.715 139.223L271.118 140.117C270.581 140.139 270.057 139.947 269.661 139.583C269.265 139.219 269.031 138.714 269.008 138.177C268.986 137.64 269.178 137.116 269.542 136.721C269.907 136.326 270.413 136.091 270.95 136.069L292.547 135.176C293.084 135.153 293.609 135.345 294.004 135.709C294.4 136.073 294.635 136.579 294.657 137.116C294.679 137.652 294.487 138.176 294.123 138.571C293.759 138.966 293.252 139.201 292.715 139.223Z" fill="white"/>
<path d="M479.053 155.852H388.685C386.263 155.849 383.942 154.887 382.229 153.176C380.517 151.465 379.553 149.146 379.551 146.726V91.1254C379.553 88.7061 380.517 86.3866 382.229 84.6758C383.942 82.965 386.263 82.0027 388.685 82H479.053C481.475 82.0027 483.797 82.965 485.509 84.6758C487.222 86.3865 488.185 88.706 488.188 91.1254V146.726C488.185 149.146 487.222 151.465 485.509 153.176C483.797 154.887 481.475 155.849 479.053 155.852Z" fill="#E6E6E6"/>
<path d="M443.149 148.69H395.038C392.769 148.687 390.595 147.786 388.991 146.184C387.387 144.582 386.485 142.41 386.482 140.144V97.7078C386.485 95.442 387.387 93.2697 388.991 91.6675C390.595 90.0653 392.769 89.1641 395.038 89.1616H472.701C474.969 89.1641 477.144 90.0653 478.748 91.6675C480.351 93.2697 481.254 95.442 481.256 97.7078V110.622C481.245 120.715 477.226 130.391 470.082 137.528C462.938 144.664 453.252 148.679 443.149 148.69Z" fill="white"/>
<path d="M464.953 112.399H402.785C402.247 112.399 401.732 112.185 401.351 111.805C400.971 111.425 400.757 110.91 400.757 110.373C400.757 109.836 400.971 109.321 401.351 108.941C401.732 108.561 402.247 108.348 402.785 108.348H464.953C465.491 108.348 466.007 108.561 466.387 108.941C466.767 109.321 466.981 109.836 466.981 110.373C466.981 110.91 466.767 111.425 466.387 111.805C466.007 112.185 465.491 112.399 464.953 112.399Z" fill="#00CE7C"/>
<path d="M412.51 120.402H402.785C402.248 120.401 401.733 120.187 401.354 119.807C400.975 119.428 400.762 118.913 400.762 118.377C400.762 117.84 400.975 117.326 401.354 116.946C401.733 116.566 402.248 116.352 402.785 116.351H412.51C413.047 116.352 413.561 116.566 413.941 116.946C414.32 117.326 414.533 117.84 414.533 118.377C414.533 118.913 414.32 119.428 413.941 119.807C413.561 120.187 413.047 120.401 412.51 120.402Z" fill="#00CE7C"/>
<path d="M429.734 128.406H402.785C402.247 128.406 401.731 128.192 401.351 127.812C400.971 127.432 400.757 126.917 400.757 126.38C400.757 125.843 400.971 125.328 401.351 124.948C401.731 124.568 402.247 124.354 402.785 124.354H429.734C430.271 124.356 430.785 124.57 431.165 124.949C431.544 125.329 431.757 125.844 431.757 126.38C431.757 126.917 431.544 127.431 431.165 127.811C430.785 128.191 430.271 128.404 429.734 128.406Z" fill="#00CE7C"/>
<path d="M390.291 165.477C395.864 156.52 393.114 144.745 384.148 139.177C375.181 133.609 363.394 136.356 357.82 145.314C352.247 154.271 354.997 166.046 363.963 171.614C372.93 177.182 384.717 174.434 390.291 165.477Z" fill="#313735"/>
<path d="M119.401 304.373C111.558 283.661 112.273 260.684 121.388 240.498C130.503 220.312 147.272 204.57 168.005 196.735C188.739 188.901 211.739 189.614 231.945 198.72C252.152 207.826 267.91 224.577 275.753 245.289L274.09 245.918C270.289 235.881 264.546 226.689 257.19 218.869C249.833 211.048 241.007 204.752 231.214 200.339C221.422 195.927 210.855 193.484 200.118 193.151C189.38 192.817 178.682 194.6 168.634 198.397C158.587 202.194 149.386 207.931 141.557 215.28C133.729 222.629 127.426 231.446 123.009 241.229C118.592 251.011 116.146 261.567 115.813 272.293C115.479 283.02 117.264 293.707 121.065 303.744L119.401 304.373Z" fill="#313735"/>
<path d="M192.517 221.67H164.248C163.644 221.671 163.047 221.536 162.503 221.274C161.959 221.012 161.481 220.63 161.106 220.158C160.735 219.697 160.473 219.159 160.34 218.583C160.207 218.007 160.207 217.408 160.339 216.832C163.015 205.033 162.864 192.769 159.897 181.039C159.687 180.209 159.751 179.333 160.081 178.543C160.411 177.752 160.988 177.09 161.726 176.655C171.966 170.7 182.902 170.881 194.228 177.196C194.764 177.488 195.227 177.899 195.58 178.396C195.933 178.894 196.168 179.466 196.266 180.068C198.282 192.704 198.355 205.574 196.482 218.232C196.349 219.187 195.874 220.062 195.145 220.694C194.416 221.326 193.482 221.672 192.517 221.67Z" fill="#00CE7C"/>
<path d="M179.309 194.277H169.584C169.047 194.276 168.532 194.062 168.153 193.682C167.773 193.303 167.56 192.788 167.56 192.252C167.56 191.715 167.773 191.201 168.153 190.821C168.532 190.441 169.047 190.227 169.584 190.226H179.309C179.846 190.227 180.36 190.441 180.74 190.821C181.119 191.201 181.332 191.715 181.332 192.252C181.332 192.788 181.119 193.303 180.74 193.682C180.36 194.062 179.846 194.276 179.309 194.277Z" fill="white"/>
<path d="M191.199 202.281H169.584C169.046 202.281 168.53 202.067 168.15 201.687C167.77 201.307 167.556 200.792 167.556 200.255C167.556 199.718 167.77 199.203 168.15 198.823C168.53 198.443 169.046 198.229 169.584 198.229H191.199C191.736 198.231 192.251 198.445 192.63 198.824C193.009 199.204 193.222 199.719 193.222 200.255C193.222 200.792 193.009 201.306 192.63 201.686C192.251 202.066 191.736 202.279 191.199 202.281Z" fill="white"/>
<path d="M99.5025 303.254H9.13474C6.71289 303.251 4.39102 302.289 2.67851 300.578C0.96601 298.867 0.0027314 296.548 0 294.128V238.528C0.0027314 236.108 0.96601 233.789 2.67851 232.078C4.39102 230.367 6.71289 229.405 9.13474 229.402H99.5025C101.924 229.405 104.246 230.367 105.959 232.078C107.671 233.789 108.635 236.108 108.637 238.528V294.128C108.635 296.548 107.671 298.867 105.959 300.578C104.246 302.289 101.924 303.251 99.5025 303.254Z" fill="#E6E6E6"/>
<path d="M63.5979 296.092H15.487C13.2188 296.09 11.0442 295.189 9.44032 293.586C7.83642 291.984 6.9342 289.812 6.93158 287.546V245.11C6.9342 242.844 7.83642 240.672 9.44032 239.07C11.0442 237.468 13.2188 236.566 15.487 236.564H93.1505C95.4187 236.566 97.5932 237.468 99.197 239.07C100.801 240.672 101.703 242.844 101.706 245.11V258.024C101.694 268.117 97.6754 277.793 90.5314 284.93C83.3873 292.067 73.7011 296.081 63.5979 296.092Z" fill="white"/>
<path d="M85.4029 259.801H23.2344C22.6966 259.801 22.1809 259.587 21.8007 259.207C21.4205 258.828 21.2068 258.312 21.2068 257.775C21.2068 257.238 21.4205 256.723 21.8007 256.343C22.1809 255.963 22.6966 255.75 23.2344 255.75H85.4029C85.9407 255.75 86.4564 255.963 86.8366 256.343C87.2168 256.723 87.4305 257.238 87.4305 257.775C87.4305 258.312 87.2168 258.828 86.8366 259.207C86.4564 259.587 85.9407 259.801 85.4029 259.801Z" fill="#00CE7C"/>
<path d="M32.9592 267.804H23.2344C22.6974 267.803 22.1827 267.589 21.8034 267.21C21.424 266.83 21.211 266.315 21.211 265.779C21.211 265.242 21.424 264.728 21.8034 264.348C22.1827 263.968 22.6974 263.754 23.2344 263.753H32.9592C33.4962 263.754 34.0108 263.968 34.3902 264.348C34.7695 264.728 34.9825 265.242 34.9825 265.779C34.9825 266.315 34.7695 266.83 34.3902 267.21C34.0108 267.589 33.4962 267.803 32.9592 267.804Z" fill="#00CE7C"/>
<path d="M50.1829 275.808H23.2344C22.6974 275.807 22.1827 275.593 21.8034 275.213C21.424 274.833 21.211 274.319 21.211 273.782C21.211 273.246 21.424 272.731 21.8034 272.351C22.1827 271.972 22.6974 271.758 23.2344 271.757H50.1829C50.7207 271.757 51.2364 271.97 51.6167 272.35C51.9969 272.73 52.2106 273.245 52.2106 273.782C52.2106 274.319 51.9969 274.835 51.6167 275.214C51.2364 275.594 50.7207 275.808 50.1829 275.808Z" fill="#00CE7C"/>
<path d="M135.183 311.103C140.757 302.146 138.006 290.371 129.04 284.803C120.073 279.235 108.286 281.982 102.713 290.94C97.1388 299.897 99.8892 311.672 108.856 317.24C117.822 322.808 129.609 320.06 135.183 311.103Z" fill="#313735"/>
<path d="M289.405 274.948H261.135C260.531 274.949 259.935 274.814 259.391 274.552C258.847 274.29 258.369 273.908 257.993 273.436C257.622 272.975 257.361 272.437 257.228 271.861C257.095 271.285 257.095 270.686 257.226 270.11C259.898 258.331 259.752 246.089 256.8 234.378C256.591 233.536 256.662 232.649 257.003 231.852C257.343 231.054 257.935 230.389 258.688 229.958C272.421 222.105 283.295 222.321 291.932 230.621C292.537 231.213 292.936 231.983 293.069 232.819C295.167 245.623 295.269 258.675 293.37 271.51C293.237 272.465 292.762 273.339 292.033 273.971C291.304 274.603 290.37 274.95 289.405 274.948Z" fill="#FF6584"/>
<path d="M277.974 248.443H268.249C267.712 248.442 267.197 248.228 266.818 247.848C266.439 247.468 266.226 246.954 266.226 246.417C266.226 245.881 266.439 245.366 266.818 244.987C267.197 244.607 267.712 244.393 268.249 244.392H277.974C278.511 244.393 279.026 244.607 279.405 244.987C279.784 245.366 279.997 245.881 279.997 246.417C279.997 246.954 279.784 247.468 279.405 247.848C279.026 248.228 278.511 248.442 277.974 248.443Z" fill="white"/>
<path d="M289.864 256.447H268.249C267.711 256.447 267.196 256.233 266.815 255.853C266.435 255.473 266.221 254.958 266.221 254.421C266.221 253.884 266.435 253.369 266.815 252.989C267.196 252.609 267.711 252.396 268.249 252.396H289.864C290.401 252.397 290.916 252.611 291.295 252.99C291.675 253.37 291.888 253.885 291.888 254.421C291.888 254.958 291.675 255.472 291.295 255.852C290.916 256.232 290.401 256.445 289.864 256.447Z" fill="white"/>
<defs>
<linearGradient id="paint0_linear_144_600" x1="303" y1="38" x2="356.333" y2="536.667" gradientUnits="userSpaceOnUse">
<stop stop-color="#008B76"/>
<stop offset="1" stop-color="#008B76" stop-opacity="0.81"/>
</linearGradient>
</defs>
</svg>
