<svg width="140" height="57" viewBox="0 0 140 57" fill="none" xmlns="http://www.w3.org/2000/svg">
<path d="M49.6157 37.5475H53.7743V30.4184H55.5824L59.9993 37.5475H64.4421L59.5603 29.6952C61.73 29.0495 63.3572 27.5771 63.3572 24.7875V24.6842C63.3572 20.8614 60.5935 19.0791 56.2282 19.0791H49.6157V37.5475ZM53.7743 27.5771V22.282H56.1248C58.1396 22.282 59.2762 22.9278 59.2762 24.8133V24.9167C59.2762 26.699 58.2171 27.5771 56.1248 27.5771H53.7743Z" fill="black"/>
<path d="M71.5799 37.8316C75.2736 37.8316 77.5983 36.2044 78.0374 33.2855H74.4987C74.2662 34.4221 73.4139 35.1712 71.6833 35.1712C69.6427 35.1712 68.4287 33.8797 68.3254 31.6325H78.0633V30.5993C78.0633 25.769 74.9637 23.7285 71.4766 23.7285C67.5505 23.7285 64.5283 26.4923 64.5283 30.7542V30.9608C64.5283 35.2745 67.4988 37.8316 71.5799 37.8316ZM68.377 29.3336C68.6611 27.4222 69.7977 26.3115 71.4766 26.3115C73.2589 26.3115 74.2921 27.293 74.4212 29.3336H68.377Z" fill="black"/>
<path d="M79.8433 37.5475H83.5628V17.9167H79.8433V37.5475Z" fill="black"/>
<path d="M90.6989 37.8317C92.9205 37.8317 94.289 36.7985 94.9864 35.4296V37.5476H98.706V24.0386H94.9864V31.9683C94.9864 33.9573 93.7465 34.9388 92.1715 34.9388C90.5703 34.9388 89.8204 34.0606 89.8204 32.2266V24.0386H86.1013V32.7432C86.1013 36.2819 88.0643 37.8317 90.6989 37.8317Z" fill="black"/>
<path d="M101.245 37.5475H104.991V29.5661C104.991 27.7322 106.153 26.8022 107.599 26.8022C108.917 26.8022 109.718 27.5771 109.718 29.3078V37.5475H113.437V29.5661C113.437 27.7322 114.599 26.8022 116.046 26.8022C117.389 26.8022 118.164 27.5771 118.164 29.3078V37.5475H121.884V28.8945C121.884 25.3041 119.946 23.7285 117.44 23.7285C115.736 23.7285 113.98 24.4517 112.895 26.079C112.249 24.4776 110.906 23.7285 109.124 23.7285C107.108 23.7285 105.662 24.8392 104.991 26.1048V24.0384H101.245V37.5475Z" fill="black"/>
<path d="M130.532 37.8316C134.227 37.8316 136.551 36.2044 136.99 33.2855H133.451C133.219 34.4221 132.366 35.1712 130.636 35.1712C128.595 35.1712 127.381 33.8797 127.278 31.6325H137.016V30.5993C137.016 25.769 133.916 23.7285 130.429 23.7285C126.503 23.7285 123.481 26.4923 123.481 30.7542V30.9608C123.481 35.2745 126.451 37.8316 130.532 37.8316ZM127.33 29.3336C127.614 27.4222 128.751 26.3115 130.429 26.3115C132.211 26.3115 133.245 27.293 133.374 29.3336H127.33Z" fill="black"/>
<path fill-rule="evenodd" clip-rule="evenodd" d="M35.3037 20.184L35.0526 19.7356C34.7288 19.1932 34.2719 18.7425 33.7253 18.4261L21.6893 11.4843C21.1442 11.1682 20.5256 11.0011 19.8955 11H19.3753C18.7452 11.0011 18.1266 11.1682 17.5816 11.4843L5.5456 18.4441C5.00205 18.7584 4.55053 19.2099 4.23617 19.7535L3.98505 20.2019C3.66889 20.7469 3.50185 21.3656 3.50073 21.9956V35.8972C3.50185 36.5273 3.66889 37.1459 3.98505 37.6909L4.23617 38.1393C4.55866 38.6766 5.00835 39.1263 5.5456 39.4488L17.5995 46.3905C18.1418 46.7132 18.7623 46.8808 19.3933 46.8748H19.8955C20.5256 46.8737 21.1442 46.7066 21.6893 46.3905L33.7253 39.4309C34.2742 39.1236 34.7275 38.6704 35.0347 38.1214L35.3037 37.673C35.6161 37.1264 35.7829 36.5087 35.7881 35.8792V21.9777C35.787 21.3477 35.62 20.729 35.3037 20.184ZM19.3753 14.5874H19.8955L30.4069 20.6503L19.6444 26.8566L8.88198 20.6503L19.3753 14.5874ZM21.4381 42.3906L31.9315 36.3277L32.2006 35.8793V23.7536L21.4381 29.9779V42.3906Z" fill="black"/>
</svg>
