<svg width="140" height="57" viewBox="0 0 140 57" fill="none" xmlns="http://www.w3.org/2000/svg">
<path d="M49.6165 37.5475H53.7751V30.4184H55.5832L60.0001 37.5475H64.4428L59.561 29.6952C61.7307 29.0495 63.358 27.5771 63.358 24.7875V24.6842C63.358 20.8614 60.5942 19.0791 56.2289 19.0791H49.6165V37.5475ZM53.7751 27.5771V22.282H56.1256C58.1404 22.282 59.2769 22.9278 59.2769 24.8133V24.9167C59.2769 26.699 58.2179 27.5771 56.1256 27.5771H53.7751Z" fill="black"/>
<path d="M71.5807 37.8316C75.2743 37.8316 77.599 36.2044 78.0381 33.2855H74.4994C74.2669 34.4221 73.4146 35.1712 71.684 35.1712C69.6434 35.1712 68.4295 33.8797 68.3261 31.6325H78.064V30.5993C78.064 25.769 74.9644 23.7285 71.4773 23.7285C67.5512 23.7285 64.5291 26.4923 64.5291 30.7542V30.9608C64.5291 35.2745 67.4995 37.8316 71.5807 37.8316ZM68.3777 29.3336C68.6619 27.4222 69.7984 26.3115 71.4773 26.3115C73.2596 26.3115 74.2928 27.293 74.422 29.3336H68.3777Z" fill="black"/>
<path d="M79.844 37.5475H83.5635V17.9167H79.844V37.5475Z" fill="black"/>
<path d="M90.6997 37.8317C92.9213 37.8317 94.2898 36.7985 94.9871 35.4296V37.5476H98.7068V24.0386H94.9871V31.9683C94.9871 33.9573 93.7473 34.9388 92.1723 34.9388C90.571 34.9388 89.8212 34.0606 89.8212 32.2266V24.0386H86.1021V32.7432C86.1021 36.2819 88.065 37.8317 90.6997 37.8317Z" fill="black"/>
<path d="M101.246 37.5475H104.992V29.5661C104.992 27.7322 106.154 26.8022 107.6 26.8022C108.918 26.8022 109.718 27.5771 109.718 29.3078V37.5475H113.438V29.5661C113.438 27.7322 114.6 26.8022 116.046 26.8022C117.39 26.8022 118.165 27.5771 118.165 29.3078V37.5475H121.884V28.8945C121.884 25.3041 119.947 23.7285 117.441 23.7285C115.737 23.7285 113.981 24.4517 112.896 26.079C112.25 24.4776 110.907 23.7285 109.124 23.7285C107.109 23.7285 105.663 24.8392 104.992 26.1048V24.0384H101.246V37.5475Z" fill="black"/>
<path d="M130.533 37.8316C134.227 37.8316 136.552 36.2044 136.991 33.2855H133.452C133.219 34.4221 132.367 35.1712 130.636 35.1712C128.596 35.1712 127.382 33.8797 127.279 31.6325H137.017V30.5993C137.017 25.769 133.917 23.7285 130.43 23.7285C126.504 23.7285 123.481 26.4923 123.481 30.7542V30.9608C123.481 35.2745 126.452 37.8316 130.533 37.8316ZM127.331 29.3336C127.615 27.4222 128.752 26.3115 130.43 26.3115C132.212 26.3115 133.246 27.293 133.375 29.3336H127.331Z" fill="black"/>
<path fill-rule="evenodd" clip-rule="evenodd" d="M35.3045 20.184L35.0534 19.7356C34.7295 19.1932 34.2727 18.7425 33.7261 18.4261L21.69 11.4843C21.145 11.1682 20.5263 11.0011 19.8963 11H19.3761C18.746 11.0011 18.1274 11.1682 17.5823 11.4843L5.54633 18.4441C5.00278 18.7584 4.55126 19.2099 4.2369 19.7535L3.98578 20.2019C3.66962 20.7469 3.50258 21.3656 3.50146 21.9956V35.8972C3.50258 36.5273 3.66962 37.1459 3.98578 37.6909L4.2369 38.1393C4.55939 38.6766 5.00908 39.1263 5.54633 39.4488L17.6003 46.3905C18.1426 46.7132 18.763 46.8808 19.394 46.8748H19.8963C20.5263 46.8737 21.145 46.7066 21.69 46.3905L33.7261 39.4309C34.275 39.1236 34.7282 38.6704 35.0354 38.1214L35.3045 37.673C35.6168 37.1264 35.7836 36.5087 35.7888 35.8792V21.9777C35.7877 21.3477 35.6207 20.729 35.3045 20.184ZM19.3761 14.5874H19.8963L30.4076 20.6503L19.6451 26.8566L8.88271 20.6503L19.3761 14.5874ZM21.4389 42.3906L31.9322 36.3277L32.2013 35.8793V23.7536L21.4389 29.9779V42.3906Z" fill="black"/>
</svg>
