<!DOCTYPE svg PUBLIC "-//W3C//DTD SVG 1.1//EN" "http://www.w3.org/Graphics/SVG/1.1/DTD/svg11.dtd">
<!-- Uploaded to: SVG Repo, www.svgrepo.com, Transformed by: SVG Repo Mixer Tools -->
<svg fill="#ffffff" width="800px" height="800px" viewBox="0 0 256 256" id="Flat" xmlns="http://www.w3.org/2000/svg" stroke="#ffffff">
<g id="SVGRepo_bgCarrier" stroke-width="0"/>
<g id="SVGRepo_tracerCarrier" stroke-linecap="round" stroke-linejoin="round"/>
<g id="SVGRepo_iconCarrier"> <path d="M200,128a8.00008,8.00008,0,0,1-8,8H64a8,8,0,0,1,0-16H192A8.00008,8.00008,0,0,1,200,128Zm32-56H24a8,8,0,0,0,0,16H232a8,8,0,0,0,0-16Zm-80,96H104a8,8,0,0,0,0,16h48a8,8,0,0,0,0-16Z"/> </g>
</svg>