<svg width="140" height="57" viewBox="0 0 140 57" fill="none" xmlns="http://www.w3.org/2000/svg">
<path fill-rule="evenodd" clip-rule="evenodd" d="M38.571 17.25L27.0615 39.75H16.2507L21.0675 30.425H20.8514C16.8776 35.5835 10.9486 38.9794 2.50073 39.75V30.5541C2.50073 30.5541 7.90504 30.2349 11.0821 26.8947H2.50073V17.2502H12.1452V25.1826L12.3617 25.1818L16.3029 17.2502H23.5967V25.1323L23.8131 25.132L27.9021 17.25H38.571Z" fill="black"/>
<path d="M101.334 37.2665H104.44V19.4375H101.334V37.2665Z" fill="black"/>
<path fill-rule="evenodd" clip-rule="evenodd" d="M84.2099 37.0845C84.8849 37.3651 85.5714 37.5055 86.2693 37.5055C87.4222 37.5055 88.4538 37.2248 89.364 36.6635C90.2742 36.1022 90.9797 35.3286 91.4803 34.3425C91.9809 33.3488 92.2312 32.2224 92.2312 30.9632C92.2312 29.7041 91.9733 28.5777 91.4576 27.5841C90.9417 26.5904 90.2249 25.8205 89.307 25.2744C88.3893 24.7207 87.3463 24.4476 86.1782 24.4552C85.4349 24.4552 84.7219 24.5993 84.0392 24.8875C83.3566 25.1758 82.7877 25.5854 82.3325 26.1163C82.2974 26.1568 82.2633 26.1976 82.2302 26.2388V19.449H79.1127V37.2666H82.2074L82.2012 35.6021C82.2812 35.7002 82.3668 35.7961 82.4577 35.8899C82.9507 36.3981 83.5348 36.7962 84.2099 37.0845ZM87.3957 34.206C86.8874 34.517 86.3072 34.6725 85.6548 34.6725C85.01 34.6725 84.4184 34.5131 83.8799 34.1946C83.3413 33.8684 82.9128 33.4247 82.5942 32.8633C82.2832 32.3021 82.1277 31.6648 82.1277 30.9518C82.1202 30.2388 82.2718 29.6017 82.5828 29.0404C82.9014 28.4715 83.3299 28.0316 83.8685 27.7206C84.407 27.402 85.0025 27.2465 85.6548 27.2541C86.3072 27.2465 86.8874 27.3982 87.3957 27.7092C87.9114 28.0126 88.3058 28.4488 88.5789 29.0177C88.8595 29.579 88.9999 30.2237 88.9999 30.9518C88.9999 31.6801 88.8595 32.3248 88.5789 32.8861C88.3058 33.4475 87.9114 33.8874 87.3957 34.206Z" fill="black"/>
<path d="M43.0708 20.5186H46.6207L49.7962 32.1155L53.1743 20.5186H56.1326L59.7962 31.8828L62.8454 20.5186H66.0994L61.298 37.2667H58.2374L54.5119 26.1647L51.0922 37.2667H47.9974L43.0708 20.5186Z" fill="black"/>
<path fill-rule="evenodd" clip-rule="evenodd" d="M71.342 37.5623C70.1055 37.57 68.9905 37.2968 67.9969 36.7432C67.0108 36.1818 66.2334 35.4043 65.6644 34.4107C65.1031 33.4171 64.8225 32.2831 64.8225 31.0087C64.8225 29.7723 65.1108 28.6536 65.6873 27.6523C66.2636 26.6511 67.0449 25.8698 68.031 25.3085C69.0171 24.7472 70.1169 24.4666 71.3305 24.4666C72.6959 24.4666 73.8905 24.77 74.9145 25.3768C75.9461 25.9836 76.716 26.8445 77.2243 27.9595C77.74 29.067 77.9259 30.3375 77.7818 31.7711H68.0359C68.0631 32.3422 68.2056 32.8618 68.4634 33.3298C68.7516 33.8456 69.1536 34.2476 69.6694 34.5358C70.1853 34.8241 70.7616 34.9682 71.3989 34.9682C71.8843 34.9606 72.3356 34.8772 72.7528 34.718C73.17 34.5511 73.5226 34.3273 73.8109 34.0466C74.1068 33.766 74.3154 33.4475 74.4368 33.091H77.6908C77.4935 33.9632 77.0991 34.7407 76.5075 35.4233C75.9158 36.0985 75.1725 36.6256 74.2774 37.0048C73.3824 37.3841 72.4039 37.57 71.342 37.5623ZM68.4748 28.6422C68.293 28.9592 68.167 29.3005 68.0969 29.6662H74.5573C74.5104 29.2042 74.3678 28.7832 74.1295 28.4033C73.8564 27.9557 73.4848 27.6106 73.0145 27.3679C72.5443 27.1176 72.0133 26.9924 71.4216 26.9924C70.792 26.9924 70.2194 27.1365 69.7035 27.4248C69.1878 27.713 68.7781 28.1188 68.4748 28.6422Z" fill="black"/>
<path d="M94.5185 24.7282C94.5185 23.7118 94.7497 22.8092 95.2125 22.0203C95.6751 21.2239 96.3237 20.6057 97.1581 20.1657C98 19.7182 98.9824 19.4868 100.105 19.4717V22.2365C99.5815 22.2441 99.134 22.354 98.7624 22.5664C98.3982 22.7712 98.1176 23.0708 97.9204 23.4653C97.7389 23.8284 97.6409 24.2494 97.6265 24.7282H100.037V27.3565H97.6246V37.2665H94.5185V27.3565H92.516V24.7282H94.5185Z" fill="black"/>
<path fill-rule="evenodd" clip-rule="evenodd" d="M112.336 37.5395C111.069 37.5395 109.935 37.2626 108.934 36.709C107.94 36.1476 107.159 35.374 106.59 34.3879C106.028 33.3942 105.748 32.2679 105.748 31.0086C105.748 29.742 106.028 28.6118 106.59 27.6181C107.159 26.6169 107.94 25.8394 108.934 25.2857C109.935 24.7319 111.069 24.4551 112.336 24.4551C113.61 24.4551 114.748 24.7319 115.749 25.2857C116.758 25.8394 117.543 26.6131 118.104 27.6067C118.665 28.6004 118.95 29.7344 118.957 31.0086C118.95 32.2679 118.665 33.3942 118.104 34.3879C117.55 35.374 116.769 36.1476 115.76 36.709C114.751 37.2626 113.61 37.5395 112.336 37.5395ZM112.336 34.6837C113.003 34.6837 113.595 34.532 114.11 34.2286C114.626 33.9176 115.024 33.4852 115.305 32.9315C115.586 32.3702 115.726 31.7292 115.726 31.0086C115.726 30.2805 115.586 29.6357 115.305 29.0745C115.024 28.5132 114.626 28.0808 114.11 27.7774C113.595 27.4664 113.003 27.3109 112.336 27.3109C111.676 27.3109 111.088 27.4664 110.572 27.7774C110.064 28.0808 109.669 28.5132 109.389 29.0745C109.108 29.6357 108.972 30.2805 108.979 31.0086C108.979 31.7292 109.119 32.3702 109.4 32.9315C109.688 33.4852 110.083 33.9176 110.583 34.2286C111.092 34.532 111.676 34.6837 112.336 34.6837Z" fill="black"/>
<path d="M122.314 24.7283H118.855L122.598 37.2666H125.625L128.087 29.2584L130.744 37.2666H133.726L137.481 24.7283H134.352L132.222 32.5326L129.868 24.7283H126.842L124.5 32.7045L122.314 24.7283Z" fill="black"/>
</svg>
