<svg width="140" height="57" viewBox="0 0 140 57" fill="none" xmlns="http://www.w3.org/2000/svg">
<path fill-rule="evenodd" clip-rule="evenodd" d="M38.5717 17.25L27.0622 39.75H16.2515L21.0682 30.425H20.8521C16.8783 35.5835 10.9493 38.9794 2.50146 39.75V30.5541C2.50146 30.5541 7.90578 30.2349 11.0828 26.8947H2.50146V17.2502H12.146V25.1826L12.3624 25.1818L16.3036 17.2502H23.5975V25.1323L23.8138 25.132L27.9028 17.25H38.5717Z" fill="black"/>
<path d="M101.334 37.2665H104.441V19.4375H101.334V37.2665Z" fill="black"/>
<path fill-rule="evenodd" clip-rule="evenodd" d="M84.2105 37.0845C84.8855 37.3651 85.572 37.5055 86.2699 37.5055C87.4228 37.5055 88.4544 37.2248 89.3647 36.6635C90.2748 36.1022 90.9803 35.3286 91.4809 34.3425C91.9815 33.3488 92.2318 32.2224 92.2318 30.9632C92.2318 29.7041 91.9739 28.5777 91.4582 27.5841C90.9423 26.5904 90.2255 25.8205 89.3077 25.2744C88.3899 24.7207 87.3469 24.4476 86.1788 24.4552C85.4355 24.4552 84.7225 24.5993 84.0398 24.8875C83.3572 25.1758 82.7883 25.5854 82.3332 26.1163C82.298 26.1568 82.2639 26.1976 82.2308 26.2388V19.449H79.1133V37.2666H82.208L82.2018 35.6021C82.2818 35.7002 82.3674 35.7961 82.4583 35.8899C82.9513 36.3981 83.5354 36.7962 84.2105 37.0845ZM87.3963 34.206C86.888 34.517 86.3078 34.6725 85.6554 34.6725C85.0107 34.6725 84.419 34.5131 83.8805 34.1946C83.3419 33.8684 82.9134 33.4247 82.5948 32.8633C82.2838 32.3021 82.1283 31.6648 82.1283 30.9518C82.1208 30.2388 82.2724 29.6017 82.5834 29.0404C82.902 28.4715 83.3305 28.0316 83.8692 27.7206C84.4077 27.402 85.0032 27.2465 85.6554 27.2541C86.3078 27.2465 86.888 27.3982 87.3963 27.7092C87.912 28.0126 88.3064 28.4488 88.5795 29.0177C88.8602 29.579 89.0005 30.2237 89.0005 30.9518C89.0005 31.6801 88.8602 32.3248 88.5795 32.8861C88.3064 33.4475 87.912 33.8874 87.3963 34.206Z" fill="black"/>
<path d="M43.0715 20.5186H46.6214L49.7969 32.1155L53.175 20.5186H56.1333L59.7969 31.8828L62.8462 20.5186H66.1002L61.2988 37.2667H58.2382L54.5127 26.1647L51.0929 37.2667H47.9982L43.0715 20.5186Z" fill="black"/>
<path fill-rule="evenodd" clip-rule="evenodd" d="M71.3427 37.5623C70.1062 37.57 68.9912 37.2968 67.9976 36.7432C67.0115 36.1818 66.2341 35.4043 65.6651 34.4107C65.1039 33.4171 64.8232 32.2831 64.8232 31.0087C64.8232 29.7723 65.1115 28.6536 65.688 27.6523C66.2644 26.6511 67.0456 25.8698 68.0317 25.3085C69.0179 24.7472 70.1176 24.4666 71.3312 24.4666C72.6966 24.4666 73.8912 24.77 74.9152 25.3768C75.9469 25.9836 76.7167 26.8445 77.225 27.9595C77.7407 29.067 77.9266 30.3375 77.7825 31.7711H68.0366C68.0639 32.3422 68.2064 32.8618 68.4641 33.3298C68.7524 33.8456 69.1544 34.2476 69.6701 34.5358C70.186 34.8241 70.7624 34.9682 71.3996 34.9682C71.885 34.9606 72.3364 34.8772 72.7535 34.718C73.1707 34.5511 73.5234 34.3273 73.8116 34.0466C74.1075 33.766 74.3161 33.4475 74.4375 33.091H77.6915C77.4942 33.9632 77.0999 34.7407 76.5082 35.4233C75.9165 36.0985 75.1732 36.6256 74.2781 37.0048C73.3831 37.3841 72.4046 37.57 71.3427 37.5623ZM68.4755 28.6422C68.2937 28.9592 68.1677 29.3005 68.0976 29.6662H74.558C74.5111 29.2042 74.3685 28.7832 74.1302 28.4033C73.8571 27.9557 73.4855 27.6106 73.0152 27.3679C72.545 27.1176 72.014 26.9924 71.4224 26.9924C70.7927 26.9924 70.2201 27.1365 69.7042 27.4248C69.1885 27.713 68.7789 28.1188 68.4755 28.6422Z" fill="black"/>
<path d="M94.5191 24.7282C94.5191 23.7118 94.7503 22.8092 95.2131 22.0203C95.6757 21.2239 96.3244 20.6057 97.1587 20.1657C98.0006 19.7182 98.983 19.4868 100.105 19.4717V22.2365C99.5821 22.2441 99.1346 22.354 98.763 22.5664C98.3989 22.7712 98.1182 23.0708 97.921 23.4653C97.7395 23.8284 97.6415 24.2494 97.6271 24.7282H100.037V27.3565H97.6252V37.2665H94.5191V27.3565H92.5166V24.7282H94.5191Z" fill="black"/>
<path fill-rule="evenodd" clip-rule="evenodd" d="M112.336 37.5395C111.07 37.5395 109.936 37.2626 108.934 36.709C107.941 36.1476 107.159 35.374 106.591 34.3879C106.029 33.3942 105.749 32.2679 105.749 31.0086C105.749 29.742 106.029 28.6118 106.591 27.6181C107.159 26.6169 107.941 25.8394 108.934 25.2857C109.936 24.7319 111.07 24.4551 112.336 24.4551C113.611 24.4551 114.748 24.7319 115.75 25.2857C116.758 25.8394 117.544 26.6131 118.105 27.6067C118.666 28.6004 118.951 29.7344 118.958 31.0086C118.951 32.2679 118.666 33.3942 118.105 34.3879C117.551 35.374 116.77 36.1476 115.761 36.709C114.752 37.2626 113.611 37.5395 112.336 37.5395ZM112.336 34.6837C113.004 34.6837 113.595 34.532 114.111 34.2286C114.627 33.9176 115.025 33.4852 115.306 32.9315C115.587 32.3702 115.727 31.7292 115.727 31.0086C115.727 30.2805 115.587 29.6357 115.306 29.0745C115.025 28.5132 114.627 28.0808 114.111 27.7774C113.595 27.4664 113.004 27.3109 112.336 27.3109C111.676 27.3109 111.089 27.4664 110.573 27.7774C110.065 28.0808 109.67 28.5132 109.389 29.0745C109.109 29.6357 108.972 30.2805 108.98 31.0086C108.98 31.7292 109.12 32.3702 109.401 32.9315C109.689 33.4852 110.083 33.9176 110.584 34.2286C111.092 34.532 111.676 34.6837 112.336 34.6837Z" fill="black"/>
<path d="M122.315 24.7283H118.856L122.599 37.2666H125.626L128.088 29.2584L130.745 37.2666H133.726L137.481 24.7283H134.353L132.223 32.5326L129.869 24.7283H126.843L124.501 32.7045L122.315 24.7283Z" fill="black"/>
</svg>
