<svg width="140" height="57" viewBox="0 0 140 57" fill="none" xmlns="http://www.w3.org/2000/svg">
<path fill-rule="evenodd" clip-rule="evenodd" d="M38.5722 17.25L27.0627 39.75H16.252L21.0687 30.425H20.8526C16.8788 35.5835 10.9498 38.9794 2.50195 39.75V30.5541C2.50195 30.5541 7.90627 30.2349 11.0833 26.8947H2.50195V17.2502H12.1465V25.1826L12.3629 25.1818L16.3041 17.2502H23.598V25.1323L23.8143 25.132L27.9033 17.25H38.5722Z" fill="black"/>
<path d="M101.335 37.2665H104.441V19.4375H101.335V37.2665Z" fill="black"/>
<path fill-rule="evenodd" clip-rule="evenodd" d="M84.211 37.0845C84.886 37.3651 85.5725 37.5055 86.2704 37.5055C87.4233 37.5055 88.4549 37.2248 89.3651 36.6635C90.2753 36.1022 90.9808 35.3286 91.4814 34.3425C91.982 33.3488 92.2323 32.2224 92.2323 30.9632C92.2323 29.7041 91.9744 28.5777 91.4586 27.5841C90.9428 26.5904 90.226 25.8205 89.3081 25.2744C88.3904 24.7207 87.3474 24.4476 86.1793 24.4552C85.436 24.4552 84.723 24.5993 84.0403 24.8875C83.3576 25.1758 82.7888 25.5854 82.3336 26.1163C82.2985 26.1568 82.2644 26.1976 82.2313 26.2388V19.449H79.1138V37.2666H82.2085L82.2023 35.6021C82.2823 35.7002 82.3679 35.7961 82.4588 35.8899C82.9518 36.3981 83.5359 36.7962 84.211 37.0845ZM87.3968 34.206C86.8885 34.517 86.3083 34.6725 85.6559 34.6725C85.0111 34.6725 84.4195 34.5131 83.881 34.1946C83.3424 33.8684 82.9139 33.4247 82.5953 32.8633C82.2843 32.3021 82.1288 31.6648 82.1288 30.9518C82.1213 30.2388 82.2729 29.6017 82.5839 29.0404C82.9025 28.4715 83.331 28.0316 83.8696 27.7206C84.4081 27.402 85.0036 27.2465 85.6559 27.2541C86.3083 27.2465 86.8885 27.3982 87.3968 27.7092C87.9125 28.0126 88.3069 28.4488 88.58 29.0177C88.8606 29.579 89.001 30.2237 89.001 30.9518C89.001 31.6801 88.8606 32.3248 88.58 32.8861C88.3069 33.4475 87.9125 33.8874 87.3968 34.206Z" fill="black"/>
<path d="M43.072 20.5186H46.6219L49.7974 32.1155L53.1755 20.5186H56.1338L59.7974 31.8828L62.8466 20.5186H66.1006L61.2993 37.2667H58.2386L54.5131 26.1647L51.0934 37.2667H47.9986L43.072 20.5186Z" fill="black"/>
<path fill-rule="evenodd" clip-rule="evenodd" d="M71.3432 37.5623C70.1067 37.57 68.9917 37.2968 67.9981 36.7432C67.012 36.1818 66.2346 35.4043 65.6656 34.4107C65.1044 33.4171 64.8237 32.2831 64.8237 31.0087C64.8237 29.7723 65.112 28.6536 65.6885 27.6523C66.2649 26.6511 67.0461 25.8698 68.0322 25.3085C69.0184 24.7472 70.1181 24.4666 71.3317 24.4666C72.6971 24.4666 73.8917 24.77 74.9157 25.3768C75.9474 25.9836 76.7172 26.8445 77.2255 27.9595C77.7412 29.067 77.9271 30.3375 77.783 31.7711H68.0371C68.0644 32.3422 68.2069 32.8618 68.4646 33.3298C68.7529 33.8456 69.1549 34.2476 69.6706 34.5358C70.1865 34.8241 70.7629 34.9682 71.4001 34.9682C71.8855 34.9606 72.3369 34.8772 72.754 34.718C73.1712 34.5511 73.5239 34.3273 73.8121 34.0466C74.108 33.766 74.3166 33.4475 74.438 33.091H77.692C77.4947 33.9632 77.1004 34.7407 76.5087 35.4233C75.917 36.0985 75.1737 36.6256 74.2786 37.0048C73.3836 37.3841 72.4051 37.57 71.3432 37.5623ZM68.476 28.6422C68.2942 28.9592 68.1682 29.3005 68.0981 29.6662H74.5585C74.5116 29.2042 74.369 28.7832 74.1307 28.4033C73.8576 27.9557 73.486 27.6106 73.0157 27.3679C72.5455 27.1176 72.0145 26.9924 71.4229 26.9924C70.7932 26.9924 70.2206 27.1365 69.7047 27.4248C69.189 27.713 68.7794 28.1188 68.476 28.6422Z" fill="black"/>
<path d="M94.5196 24.7282C94.5196 23.7118 94.7508 22.8092 95.2136 22.0203C95.6762 21.2239 96.3248 20.6057 97.1592 20.1657C98.0011 19.7182 98.9835 19.4868 100.106 19.4717V22.2365C99.5826 22.2441 99.1351 22.354 98.7635 22.5664C98.3993 22.7712 98.1187 23.0708 97.9215 23.4653C97.74 23.8284 97.642 24.2494 97.6276 24.7282H100.038V27.3565H97.6257V37.2665H94.5196V27.3565H92.5171V24.7282H94.5196Z" fill="black"/>
<path fill-rule="evenodd" clip-rule="evenodd" d="M112.337 37.5395C111.07 37.5395 109.936 37.2626 108.935 36.709C107.941 36.1476 107.16 35.374 106.591 34.3879C106.03 33.3942 105.749 32.2679 105.749 31.0086C105.749 29.742 106.03 28.6118 106.591 27.6181C107.16 26.6169 107.941 25.8394 108.935 25.2857C109.936 24.7319 111.07 24.4551 112.337 24.4551C113.611 24.4551 114.749 24.7319 115.75 25.2857C116.759 25.8394 117.544 26.6131 118.105 27.6067C118.667 28.6004 118.951 29.7344 118.959 31.0086C118.951 32.2679 118.667 33.3942 118.105 34.3879C117.552 35.374 116.77 36.1476 115.761 36.709C114.753 37.2626 113.611 37.5395 112.337 37.5395ZM112.337 34.6837C113.004 34.6837 113.596 34.532 114.112 34.2286C114.628 33.9176 115.026 33.4852 115.306 32.9315C115.587 32.3702 115.727 31.7292 115.727 31.0086C115.727 30.2805 115.587 29.6357 115.306 29.0745C115.026 28.5132 114.628 28.0808 114.112 27.7774C113.596 27.4664 113.004 27.3109 112.337 27.3109C111.677 27.3109 111.089 27.4664 110.573 27.7774C110.065 28.0808 109.671 28.5132 109.39 29.0745C109.109 29.6357 108.973 30.2805 108.98 31.0086C108.98 31.7292 109.121 32.3702 109.401 32.9315C109.69 33.4852 110.084 33.9176 110.585 34.2286C111.093 34.532 111.677 34.6837 112.337 34.6837Z" fill="black"/>
<path d="M122.315 24.7283H118.856L122.6 37.2666H125.626L128.088 29.2584L130.746 37.2666H133.727L137.482 24.7283H134.353L132.223 32.5326L129.869 24.7283H126.844L124.501 32.7045L122.315 24.7283Z" fill="black"/>
</svg>
