<svg width="528" height="696" viewBox="0 0 528 696" fill="none" xmlns="http://www.w3.org/2000/svg">
<path d="M127.567 148.335H2.56519V31.542H127.567V148.335Z" fill="white"/>
<path d="M130.132 151.029H0V28.8481H130.132V151.029ZM5.13062 145.642H125.002V34.236H5.13062V145.642Z" fill="#CCCCCC"/>
<path d="M151.613 631.776L139.033 631.775L133.047 580.819L151.615 580.82L151.613 631.776Z" fill="#FFB7B7"/>
<path d="M154.821 644.581L114.257 644.58V644.041C114.258 639.644 115.921 635.427 118.882 632.318C121.843 629.209 125.859 627.462 130.046 627.461H130.047L154.822 627.462L154.821 644.581Z" fill="#2F2E41"/>
<path d="M269.011 623.662L256.723 626.495L240.471 578.072L258.607 573.891L269.011 623.662Z" fill="#FFB7B7"/>
<path d="M274.76 635.447L235.14 644.581L235.03 644.055C234.132 639.76 234.896 635.267 237.153 631.563C239.41 627.859 242.975 625.249 247.065 624.305L247.066 624.305L271.264 618.727L274.76 635.447Z" fill="#2F2E41"/>
<path d="M116.305 452.777L54.1672 466.852C42.2498 443.259 39.5719 418.615 39.4727 395.31L101.61 381.235C100.65 406.005 105.707 430.625 116.305 452.777Z" fill="#00CE7C"/>
<path d="M53.6479 408.373L53.1184 405.894L85.4106 399.043L85.94 401.522L53.6479 408.373Z" fill="white"/>
<path d="M55.7658 418.284L55.2363 415.807L87.5285 408.956L88.058 411.434L55.7658 418.284Z" fill="white"/>
<path d="M57.8837 428.197L57.3542 425.718L89.6464 418.868L90.1759 421.345L57.8837 428.197Z" fill="white"/>
<path d="M60.0016 438.109L59.4722 435.631L91.7643 428.78L92.2938 431.258L60.0016 438.109Z" fill="white"/>
<path d="M62.1196 448.02L61.5901 445.543L93.8822 438.692L94.4117 441.169L62.1196 448.02Z" fill="white"/>
<path d="M257.979 394.954C258.95 393.432 259.591 391.706 259.858 389.896C260.125 388.086 260.011 386.236 259.523 384.478C259.036 382.719 258.187 381.095 257.037 379.718C255.887 378.341 254.464 377.246 252.867 376.509L253.43 347.887L236.95 343.285L236.695 383.717C235.695 386.616 235.742 389.8 236.827 392.665C237.912 395.53 239.961 397.878 242.584 399.263C245.208 400.648 248.224 400.974 251.061 400.18C253.899 399.386 256.36 397.526 257.979 394.954Z" fill="#FFB7B7"/>
<path d="M99.6905 128.863L36.1399 127.352C29.7832 101.494 32.6451 76.8726 37.7178 54.1841L101.268 55.695C94.84 79.5491 94.2971 104.728 99.6905 128.863Z" fill="#00CE7C"/>
<path d="M48.6055 70.3543L48.6393 67.8145L81.5636 69.0504L81.5287 71.5902L48.6055 70.3543Z" fill="white"/>
<path d="M48.467 80.5114L48.5009 77.9727L81.4251 79.2086L81.3903 81.7474L48.467 80.5114Z" fill="white"/>
<path d="M48.3274 90.6697L48.3623 88.1299L81.2865 89.3658L81.2516 91.9057L48.3274 90.6697Z" fill="white"/>
<path d="M48.189 100.827L48.2238 98.2871L81.1481 99.5231L81.1132 102.063L48.189 100.827Z" fill="white"/>
<path d="M48.0503 110.984L48.0852 108.445L81.0084 109.681L80.9745 112.22L48.0503 110.984Z" fill="white"/>
<path d="M130.021 48.6436C142.749 48.6436 153.067 37.8082 153.067 24.4422C153.067 11.0761 142.749 0.240723 130.021 0.240723C117.293 0.240723 106.975 11.0761 106.975 24.4422C106.975 37.8082 117.293 48.6436 130.021 48.6436Z" fill="#00CE7C"/>
<path d="M129.199 36.2347L120.471 25.0313L121.844 23.8525L129.07 33.1281L141.698 13.6792L143.163 14.7277L129.199 36.2347Z" fill="white"/>
<path d="M524.677 354.15H399.676V237.356H524.677V354.15Z" fill="white"/>
<path d="M527.243 356.844H397.11V234.663H527.243V356.844ZM402.241 351.456H522.112V240.05H402.241V351.456Z" fill="#E6E6E6"/>
<path d="M524.677 148.335H399.676V31.542H524.677V148.335Z" fill="white"/>
<path d="M527.243 151.029H397.11V28.8481H527.243V151.029ZM402.241 145.642H522.112V34.236H402.241V145.642Z" fill="#E6E6E6"/>
<path d="M325.609 354.15H200.607V237.356H325.609V354.15Z" fill="white"/>
<path d="M328.174 356.844H198.042V234.663H328.174V356.844ZM203.173 351.456H323.044V240.05H203.173V351.456Z" fill="#CCCCCC"/>
<path d="M127.567 354.15H2.56519V237.356H127.567V354.15Z" fill="white"/>
<path d="M130.132 356.844H0V234.663H130.132V356.844ZM5.13062 351.456H125.002V240.05H5.13062V351.456Z" fill="#E6E6E6"/>
<path d="M325.609 148.335H200.607V31.542H325.609V148.335Z" fill="white"/>
<path d="M328.174 151.029H198.042V28.8481H328.174V151.029ZM203.173 145.642H323.044V34.236H203.173V145.642Z" fill="#E6E6E6"/>
<path d="M308.256 691.775L324.956 657.787C355.772 663.111 361.212 662.023 388.141 658.351L395.301 695.237C366.502 690.656 337.303 689.495 308.256 691.775Z" fill="#E6E6E6"/>
<path d="M377.926 685.645L377.403 666.536L379.315 666.611L379.839 685.721L377.926 685.645Z" fill="white"/>
<path d="M370.274 685.34L369.75 666.231L371.663 666.308L372.187 685.417L370.274 685.34Z" fill="white"/>
<path d="M362.621 685.037L362.098 665.927L364.011 666.003L364.535 685.112L362.621 685.037Z" fill="white"/>
<path d="M128.576 349.888C128.576 349.888 122.511 352.435 128.576 449.241L131.001 607.187H155.261L182.566 392.538L215.908 492.549L246.232 611.008L270.491 604.639C270.491 604.639 245.019 365.173 223.186 349.888C201.353 334.603 128.576 349.888 128.576 349.888Z" fill="#2E3641"/>
<path d="M177.291 153.809C191.214 153.809 202.502 141.955 202.502 127.333C202.502 112.712 191.214 100.858 177.291 100.858C163.367 100.858 152.079 112.712 152.079 127.333C152.079 141.955 163.367 153.809 177.291 153.809Z" fill="#FFB8B8"/>
<path d="M201.353 170.288C201.353 170.288 179.519 158.824 158.899 166.466C138.279 174.109 127.362 183.025 127.362 183.025L140.705 256.903L122.51 356.257C122.51 356.257 215.908 348.614 224.399 356.257C232.89 363.899 232.89 347.34 232.89 347.34L225.612 253.082L238.954 193.215L201.353 170.288Z" fill="#008B76"/>
<path d="M155.836 125.507L161.173 139.826C163.36 145.694 165.865 151.972 170.991 155.247C177.321 159.29 185.773 157.318 191.896 152.938C197.403 148.999 201.631 143.385 204.01 136.849C206.39 130.313 206.808 123.169 205.208 116.377C203.609 109.584 200.068 103.468 195.062 98.8504C190.056 94.2327 183.824 91.3343 177.203 90.5446L176.95 95.3372L171.349 90.4077C170.935 91.154 170.365 91.7921 169.683 92.2739C169 92.7558 168.222 93.069 167.408 93.1899C166.593 93.3109 165.763 93.2365 164.98 92.9723C164.197 92.7081 163.481 92.261 162.886 91.6646C164.357 94.8669 162.659 98.7724 160.207 101.226C157.195 104.239 148.579 107.861 148.937 113.248C149.175 116.843 154.448 121.782 155.836 125.507Z" fill="#2F2E41"/>
<path d="M109.202 396.648C110.541 395.475 111.618 394.007 112.358 392.348C113.098 390.69 113.483 388.881 113.485 387.05C113.488 385.218 113.108 383.408 112.372 381.748C111.636 380.087 110.563 378.616 109.227 377.438L117.42 350.133L102.833 340.858L91.7791 379.589C90.0437 382.076 89.2375 385.146 89.5132 388.216C89.7889 391.286 91.1274 394.143 93.2751 396.245C95.4227 398.348 98.2303 399.551 101.166 399.625C104.101 399.699 106.961 398.64 109.202 396.648Z" fill="#FFB7B7"/>
<path d="M135.853 183.025H127.362C127.362 183.025 114.02 191.941 114.02 204.679C114.02 217.416 94.6125 366.446 94.6125 366.446L115.233 370.268L133.427 265.819L146.77 237.797L135.853 183.025Z" fill="#008B76"/>
<path d="M215.908 193.215H238.955C238.955 193.215 246.232 200.858 249.871 218.691C253.51 236.523 257.149 306.58 257.149 306.58L254.723 370.268H236.529L234.103 287.474L221.973 233.976L215.908 193.215Z" fill="#008B76"/>
<path d="M393.927 645.765H2.97339C2.70125 645.765 2.44023 645.652 2.24779 645.45C2.05536 645.248 1.94727 644.973 1.94727 644.688C1.94727 644.402 2.05536 644.128 2.24779 643.926C2.44023 643.724 2.70125 643.61 2.97339 643.61H393.927C394.199 643.61 394.46 643.724 394.653 643.926C394.845 644.128 394.953 644.402 394.953 644.688C394.953 644.973 394.845 645.248 394.653 645.45C394.46 645.652 394.199 645.765 393.927 645.765Z" fill="#CBCBCB"/>
</svg>
